<svg width="64" height="7" viewBox="0 0 64 7" fill="none" xmlns="http://www.w3.org/2000/svg">
<path d="M2.052 6.06C1.556 6.06 1.16 5.88 0.864 5.52C0.568 5.16 0.42 4.688 0.42 4.104C0.42 3.464 0.568 2.86 0.864 2.292C1.16 1.716 1.552 1.256 2.04 0.912C2.536 0.56 3.06 0.384 3.612 0.384C3.788 0.384 3.904 0.42 3.96 0.492C4.024 0.556 4.076 0.676 4.116 0.852C4.284 0.82 4.46 0.804 4.644 0.804C5.036 0.804 5.232 0.944 5.232 1.224C5.232 1.392 5.172 1.792 5.052 2.424C4.868 3.344 4.776 3.984 4.776 4.344C4.776 4.464 4.804 4.56 4.86 4.632C4.924 4.704 5.004 4.74 5.1 4.74C5.252 4.74 5.436 4.644 5.652 4.452C5.868 4.252 6.16 3.932 6.528 3.492C6.624 3.38 6.732 3.324 6.852 3.324C6.956 3.324 7.036 3.372 7.092 3.468C7.156 3.564 7.188 3.696 7.188 3.864C7.188 4.184 7.112 4.432 6.96 4.608C6.632 5.016 6.284 5.36 5.916 5.64C5.548 5.92 5.192 6.06 4.848 6.06C4.584 6.06 4.34 5.972 4.116 5.796C3.9 5.612 3.736 5.364 3.624 5.052C3.208 5.724 2.684 6.06 2.052 6.06ZM2.484 4.848C2.66 4.848 2.828 4.744 2.988 4.536C3.148 4.328 3.264 4.052 3.336 3.708L3.78 1.5C3.444 1.508 3.132 1.636 2.844 1.884C2.564 2.124 2.34 2.444 2.172 2.844C2.004 3.244 1.92 3.668 1.92 4.116C1.92 4.364 1.968 4.548 2.064 4.668C2.168 4.788 2.308 4.848 2.484 4.848ZM13.5179 0.396C13.9579 0.396 14.1779 0.536 14.1779 0.816C14.1779 0.912 14.1459 1.044 14.0819 1.212C13.4339 2.724 12.8219 3.944 12.2459 4.872C11.9579 5.328 11.6979 5.64 11.4659 5.808C11.2339 5.976 10.9699 6.06 10.6739 6.06C10.3539 6.06 10.1139 5.936 9.95391 5.688C9.80191 5.44 9.70591 5.032 9.66591 4.464C9.64991 4.256 9.63391 3.944 9.61791 3.528C9.36991 4.216 9.14191 4.744 8.93391 5.112C8.73391 5.472 8.53391 5.72 8.33391 5.856C8.14191 5.992 7.90991 6.06 7.63791 6.06C7.30991 6.06 7.04991 5.932 6.85791 5.676C6.67391 5.42 6.55791 5.016 6.50991 4.464C6.41391 3.344 6.36591 2.364 6.36591 1.524V1.104C6.37391 0.832 6.44191 0.648 6.56991 0.552C6.69791 0.448 6.90591 0.396 7.19391 0.396C7.40191 0.396 7.55391 0.444 7.64991 0.54C7.75391 0.628 7.80591 0.78 7.80591 0.996C7.80591 1.916 7.86191 3.112 7.97391 4.584C8.23791 4.024 8.48191 3.488 8.70591 2.976C8.92991 2.464 9.18991 1.808 9.48591 1.008C9.57391 0.768 9.67791 0.608 9.79791 0.528C9.92591 0.44 10.0739 0.396 10.2419 0.396C10.4659 0.396 10.6339 0.444 10.7459 0.54C10.8579 0.628 10.9139 0.78 10.9139 0.996V2.856C10.9139 3.656 10.9179 4.232 10.9259 4.584C11.2939 3.944 11.5939 3.388 11.8259 2.916C12.0659 2.444 12.3339 1.808 12.6299 1.008C12.7179 0.768 12.8339 0.608 12.9779 0.528C13.1219 0.44 13.3019 0.396 13.5179 0.396ZM16.1322 6.324C15.7162 6.324 15.3962 6.228 15.1722 6.036C14.9562 5.844 14.8482 5.628 14.8482 5.388C14.8482 5.18 14.9242 5 15.0762 4.848C15.2282 4.696 15.4522 4.62 15.7482 4.62C15.8522 4.62 15.9722 4.632 16.1082 4.656C16.2522 4.672 16.3602 4.684 16.4322 4.692C16.4242 4.484 16.3762 4.288 16.2882 4.104C16.2082 3.92 16.1042 3.744 15.9762 3.576C15.8482 3.4 15.7282 3.248 15.6162 3.12C15.3682 3.592 15.1202 3.984 14.8722 4.296C14.6322 4.608 14.3682 4.904 14.0802 5.184C13.9362 5.328 13.7842 5.4 13.6242 5.4C13.4962 5.4 13.3922 5.356 13.3122 5.268C13.2322 5.172 13.1922 5.056 13.1922 4.92C13.1922 4.76 13.2482 4.612 13.3602 4.476L13.5162 4.284C13.9562 3.74 14.2882 3.292 14.5122 2.94C14.6482 2.708 14.8082 2.4 14.9922 2.016C15.1762 1.624 15.3562 1.22 15.5322 0.804C15.6842 0.452 16.0002 0.276 16.4802 0.276C16.7042 0.276 16.8602 0.296 16.9482 0.336C17.0362 0.376 17.0802 0.44 17.0802 0.528C17.0802 0.576 17.0642 0.652 17.0322 0.756C17.0002 0.86 16.9562 0.964 16.9002 1.068C16.7562 1.356 16.6842 1.6 16.6842 1.8C16.6842 1.92 16.7242 2.052 16.8042 2.196C16.8922 2.34 17.0242 2.52 17.2002 2.736C17.4562 3.072 17.6482 3.36 17.7762 3.6C17.9122 3.832 17.9802 4.088 17.9802 4.368C17.9802 4.448 17.9722 4.56 17.9562 4.704C18.3482 4.552 18.8082 4.148 19.3362 3.492C19.4322 3.38 19.5402 3.324 19.6602 3.324C19.7642 3.324 19.8442 3.372 19.9002 3.468C19.9642 3.564 19.9962 3.696 19.9962 3.864C19.9962 4.168 19.9202 4.416 19.7682 4.608C19.3682 5.104 18.9842 5.444 18.6162 5.628C18.2562 5.804 17.8082 5.9 17.2722 5.916C16.9522 6.188 16.5722 6.324 16.1322 6.324ZM25.1413 2.316C25.2453 2.316 25.3253 2.368 25.3813 2.472C25.4373 2.576 25.4653 2.708 25.4653 2.868C25.4653 3.252 25.3493 3.48 25.1173 3.552C24.6373 3.72 24.1093 3.816 23.5333 3.84C23.3813 4.512 23.0813 5.052 22.6333 5.46C22.1853 5.86 21.6773 6.06 21.1093 6.06C20.6293 6.06 20.2173 5.944 19.8733 5.712C19.5373 5.48 19.2813 5.172 19.1053 4.788C18.9293 4.404 18.8413 3.988 18.8413 3.54C18.8413 2.932 18.9573 2.392 19.1893 1.92C19.4213 1.44 19.7413 1.068 20.1493 0.804C20.5573 0.532 21.0093 0.396 21.5053 0.396C22.1133 0.396 22.6013 0.608 22.9693 1.032C23.3453 1.448 23.5653 1.964 23.6293 2.58C24.0053 2.556 24.4533 2.476 24.9733 2.34C25.0373 2.324 25.0933 2.316 25.1413 2.316ZM21.2053 4.788C21.4613 4.788 21.6813 4.684 21.8653 4.476C22.0573 4.268 22.1853 3.968 22.2493 3.576C22.0013 3.408 21.8093 3.188 21.6733 2.916C21.5453 2.644 21.4813 2.356 21.4813 2.052C21.4813 1.924 21.4933 1.796 21.5173 1.668H21.4573C21.1373 1.668 20.8693 1.824 20.6533 2.136C20.4453 2.44 20.3413 2.872 20.3413 3.432C20.3413 3.872 20.4253 4.208 20.5933 4.44C20.7693 4.672 20.9733 4.788 21.2053 4.788ZM25.2874 6.06C24.9834 6.06 24.7674 5.9 24.6394 5.58C24.5194 5.26 24.4594 4.748 24.4594 4.044C24.4594 3.004 24.6074 2.016 24.9034 1.08C24.9754 0.848 25.0914 0.68 25.2514 0.576C25.4194 0.464 25.6514 0.408 25.9474 0.408C26.1074 0.408 26.2194 0.428 26.2834 0.468C26.3474 0.508 26.3794 0.584 26.3794 0.696C26.3794 0.824 26.3194 1.112 26.1994 1.56C26.1194 1.88 26.0554 2.16 26.0074 2.4C25.9594 2.632 25.9194 2.924 25.8874 3.276C26.1034 2.652 26.3594 2.124 26.6554 1.692C26.9594 1.26 27.2674 0.94 27.5794 0.732C27.8994 0.516 28.1994 0.408 28.4794 0.408C28.7594 0.408 28.9554 0.472 29.0674 0.6C29.1874 0.728 29.2474 0.924 29.2474 1.188C29.2474 1.444 29.1714 1.908 29.0194 2.58C28.9554 2.868 28.9114 3.084 28.8874 3.228C29.2874 2.244 29.7314 1.528 30.2194 1.08C30.7074 0.632 31.1634 0.408 31.5874 0.408C32.1074 0.408 32.3674 0.668 32.3674 1.188C32.3674 1.5 32.2794 2.064 32.1034 2.88C31.9514 3.576 31.8754 4.036 31.8754 4.26C31.8754 4.58 31.9914 4.74 32.2234 4.74C32.3834 4.74 32.5714 4.644 32.7874 4.452C33.0114 4.252 33.3074 3.932 33.6754 3.492C33.7714 3.38 33.8794 3.324 33.9994 3.324C34.1034 3.324 34.1834 3.372 34.2394 3.468C34.3034 3.564 34.3354 3.696 34.3354 3.864C34.3354 4.184 34.2594 4.432 34.1074 4.608C33.7634 5.032 33.3914 5.38 32.9914 5.652C32.5994 5.924 32.1514 6.06 31.6474 6.06C31.2394 6.06 30.9314 5.944 30.7234 5.712C30.5154 5.472 30.4114 5.128 30.4114 4.68C30.4114 4.456 30.4674 4.056 30.5794 3.48C30.6834 2.976 30.7354 2.628 30.7354 2.436C30.7354 2.308 30.6914 2.244 30.6034 2.244C30.4994 2.244 30.3514 2.38 30.1594 2.652C29.9674 2.916 29.7754 3.268 29.5834 3.708C29.3914 4.148 29.2354 4.612 29.1154 5.1C29.0274 5.484 28.9234 5.74 28.8034 5.868C28.6914 5.996 28.5074 6.06 28.2514 6.06C27.9874 6.06 27.7874 5.936 27.6514 5.688C27.5234 5.432 27.4594 5.124 27.4594 4.764C27.4594 4.46 27.4994 4.02 27.5794 3.444C27.6434 2.932 27.6754 2.596 27.6754 2.436C27.6754 2.308 27.6314 2.244 27.5434 2.244C27.4234 2.244 27.2714 2.388 27.0874 2.676C26.9034 2.964 26.7234 3.332 26.5474 3.78C26.3794 4.228 26.2434 4.668 26.1394 5.1C26.0514 5.476 25.9474 5.732 25.8274 5.868C25.7154 5.996 25.5354 6.06 25.2874 6.06ZM37.6611 3.684C37.7651 3.684 37.8451 3.732 37.9011 3.828C37.9651 3.924 37.9971 4.056 37.9971 4.224C37.9971 4.512 37.9291 4.76 37.7931 4.968C37.5691 5.312 37.2731 5.58 36.9051 5.772C36.5451 5.964 36.1131 6.06 35.6091 6.06C34.8411 6.06 34.2451 5.832 33.8211 5.376C33.3971 4.912 33.1851 4.288 33.1851 3.504C33.1851 2.952 33.3011 2.44 33.5331 1.968C33.7651 1.488 34.0851 1.108 34.4931 0.828C34.9091 0.548 35.3771 0.408 35.8971 0.408C36.3611 0.408 36.7331 0.548 37.0131 0.828C37.2931 1.1 37.4331 1.472 37.4331 1.944C37.4331 2.496 37.2331 2.972 36.8331 3.372C36.4411 3.764 35.7691 4.076 34.8171 4.308C35.0091 4.676 35.3331 4.86 35.7891 4.86C36.1171 4.86 36.3851 4.784 36.5931 4.632C36.8091 4.48 37.0571 4.224 37.3371 3.864C37.4331 3.744 37.5411 3.684 37.6611 3.684ZM35.6931 1.584C35.3971 1.584 35.1451 1.756 34.9371 2.1C34.7371 2.444 34.6371 2.86 34.6371 3.348V3.372C35.1091 3.26 35.4811 3.092 35.7531 2.868C36.0251 2.644 36.1611 2.384 36.1611 2.088C36.1611 1.936 36.1171 1.816 36.0291 1.728C35.9491 1.632 35.8371 1.584 35.6931 1.584ZM42.3264 6.06C42.0224 6.06 41.8064 5.9 41.6784 5.58C41.5584 5.26 41.4984 4.748 41.4984 4.044C41.4984 3.004 41.6464 2.016 41.9424 1.08C42.0144 0.848 42.1304 0.68 42.2904 0.576C42.4584 0.464 42.6904 0.408 42.9864 0.408C43.1464 0.408 43.2584 0.428 43.3224 0.468C43.3864 0.508 43.4184 0.584 43.4184 0.696C43.4184 0.824 43.3584 1.112 43.2384 1.56C43.1584 1.88 43.0944 2.16 43.0464 2.4C42.9984 2.64 42.9584 2.936 42.9264 3.288C43.1904 2.6 43.4864 2.04 43.8144 1.608C44.1424 1.176 44.4624 0.868 44.7744 0.684C45.0944 0.5 45.3864 0.408 45.6504 0.408C46.1704 0.408 46.4304 0.668 46.4304 1.188C46.4304 1.5 46.3424 2.064 46.1664 2.88C46.0144 3.576 45.9384 4.036 45.9384 4.26C45.9384 4.58 46.0544 4.74 46.2864 4.74C46.4464 4.74 46.6344 4.644 46.8504 4.452C47.0744 4.252 47.3704 3.932 47.7384 3.492C47.8344 3.38 47.9424 3.324 48.0624 3.324C48.1664 3.324 48.2464 3.372 48.3024 3.468C48.3664 3.564 48.3984 3.696 48.3984 3.864C48.3984 4.184 48.3224 4.432 48.1704 4.608C47.8264 5.032 47.4544 5.38 47.0544 5.652C46.6624 5.924 46.2144 6.06 45.7104 6.06C45.3024 6.06 44.9944 5.944 44.7864 5.712C44.5784 5.472 44.4744 5.128 44.4744 4.68C44.4744 4.456 44.5304 4.056 44.6424 3.48C44.7464 2.976 44.7984 2.628 44.7984 2.436C44.7984 2.308 44.7544 2.244 44.6664 2.244C44.5624 2.244 44.4144 2.38 44.2224 2.652C44.0384 2.916 43.8464 3.268 43.6464 3.708C43.4544 4.148 43.2984 4.612 43.1784 5.1C43.0904 5.476 42.9864 5.732 42.8664 5.868C42.7544 5.996 42.5744 6.06 42.3264 6.06ZM52.7796 3.324C52.8836 3.324 52.9636 3.372 53.0196 3.468C53.0836 3.564 53.1156 3.696 53.1156 3.864C53.1156 4.184 53.0396 4.432 52.8876 4.608C52.5916 4.968 52.1716 5.3 51.6276 5.604C51.0916 5.908 50.5156 6.06 49.8996 6.06C49.0596 6.06 48.4076 5.832 47.9436 5.376C47.4796 4.92 47.2476 4.296 47.2476 3.504C47.2476 2.952 47.3636 2.44 47.5956 1.968C47.8276 1.488 48.1476 1.108 48.5556 0.828C48.9716 0.548 49.4396 0.408 49.9596 0.408C50.4236 0.408 50.7956 0.548 51.0756 0.828C51.3556 1.1 51.4956 1.472 51.4956 1.944C51.4956 2.496 51.2956 2.972 50.8956 3.372C50.5036 3.764 49.8356 4.076 48.8916 4.308C49.0916 4.676 49.4716 4.86 50.0316 4.86C50.3916 4.86 50.7996 4.736 51.2556 4.488C51.7196 4.232 52.1196 3.9 52.4556 3.492C52.5516 3.38 52.6596 3.324 52.7796 3.324ZM49.7556 1.584C49.4596 1.584 49.2076 1.756 48.9996 2.1C48.7996 2.444 48.6996 2.86 48.6996 3.348V3.372C49.1716 3.26 49.5436 3.092 49.8156 2.868C50.0876 2.644 50.2236 2.384 50.2236 2.088C50.2236 1.936 50.1796 1.816 50.0916 1.728C50.0116 1.632 49.8996 1.584 49.7556 1.584ZM59.3851 0.396C59.8251 0.396 60.0451 0.536 60.0451 0.816C60.0451 0.912 60.0131 1.044 59.9491 1.212C59.3011 2.724 58.6891 3.944 58.1131 4.872C57.8251 5.328 57.5651 5.64 57.3331 5.808C57.1011 5.976 56.8371 6.06 56.5411 6.06C56.2211 6.06 55.9811 5.936 55.8211 5.688C55.6691 5.44 55.5731 5.032 55.5331 4.464C55.5171 4.256 55.5011 3.944 55.4851 3.528C55.2371 4.216 55.0091 4.744 54.8011 5.112C54.6011 5.472 54.4011 5.72 54.2011 5.856C54.0091 5.992 53.7771 6.06 53.5051 6.06C53.1771 6.06 52.9171 5.932 52.7251 5.676C52.5411 5.42 52.4251 5.016 52.3771 4.464C52.2811 3.344 52.2331 2.364 52.2331 1.524V1.104C52.2411 0.832 52.3091 0.648 52.4371 0.552C52.5651 0.448 52.7731 0.396 53.0611 0.396C53.2691 0.396 53.4211 0.444 53.5171 0.54C53.6211 0.628 53.6731 0.78 53.6731 0.996C53.6731 1.916 53.7291 3.112 53.8411 4.584C54.1051 4.024 54.3491 3.488 54.5731 2.976C54.7971 2.464 55.0571 1.808 55.3531 1.008C55.4411 0.768 55.5451 0.608 55.6651 0.528C55.7931 0.44 55.9411 0.396 56.1091 0.396C56.3331 0.396 56.5011 0.444 56.6131 0.54C56.7251 0.628 56.7811 0.78 56.7811 0.996V2.856C56.7811 3.656 56.7851 4.232 56.7931 4.584C57.1611 3.944 57.4611 3.388 57.6931 2.916C57.9331 2.444 58.2011 1.808 58.4971 1.008C58.5851 0.768 58.7011 0.608 58.8451 0.528C58.9891 0.44 59.1691 0.396 59.3851 0.396ZM61.9994 6.324C61.5834 6.324 61.2634 6.228 61.0394 6.036C60.8234 5.844 60.7154 5.628 60.7154 5.388C60.7154 5.18 60.7914 5 60.9434 4.848C61.0954 4.696 61.3194 4.62 61.6154 4.62C61.7194 4.62 61.8394 4.632 61.9754 4.656C62.1194 4.672 62.2274 4.684 62.2994 4.692C62.2914 4.484 62.2434 4.288 62.1554 4.104C62.0754 3.92 61.9714 3.744 61.8434 3.576C61.7154 3.4 61.5954 3.248 61.4834 3.12C61.2354 3.592 60.9874 3.984 60.7394 4.296C60.4994 4.608 60.2354 4.904 59.9474 5.184C59.8034 5.328 59.6514 5.4 59.4914 5.4C59.3634 5.4 59.2594 5.356 59.1794 5.268C59.0994 5.172 59.0594 5.056 59.0594 4.92C59.0594 4.76 59.1154 4.612 59.2274 4.476L59.3834 4.284C59.8234 3.74 60.1554 3.292 60.3794 2.94C60.5234 2.708 60.6674 2.432 60.8114 2.112C60.9634 1.792 61.1594 1.356 61.3994 0.804C61.5514 0.452 61.8674 0.276 62.3474 0.276C62.5714 0.276 62.7274 0.296 62.8154 0.336C62.9034 0.376 62.9474 0.44 62.9474 0.528C62.9474 0.576 62.9314 0.652 62.8994 0.756C62.8674 0.86 62.8234 0.964 62.7674 1.068C62.6234 1.356 62.5514 1.6 62.5514 1.8C62.5514 1.92 62.5914 2.052 62.6714 2.196C62.7594 2.34 62.8914 2.52 63.0674 2.736C63.3234 3.072 63.5154 3.36 63.6434 3.6C63.7794 3.832 63.8474 4.088 63.8474 4.368C63.8474 4.704 63.7674 5.024 63.6074 5.328C63.4554 5.624 63.2394 5.864 62.9594 6.048C62.6794 6.232 62.3594 6.324 61.9994 6.324Z" fill="black"/>
</svg>
